<?xml version="1.0" encoding="utf-8"?>
<!-- Generator: Adobe Illustrator 16.0.4, SVG Export Plug-In . SVG Version: 6.00 Build 0)  -->
<!DOCTYPE svg PUBLIC "-//W3C//DTD SVG 1.1//EN" "http://www.w3.org/Graphics/SVG/1.1/DTD/svg11.dtd">
<svg version="1.1" id="Layer_1" xmlns="http://www.w3.org/2000/svg" xmlns:xlink="http://www.w3.org/1999/xlink" x="0px" y="0px"
	 width="25px" height="25px" viewBox="58.75 5 25 25" enable-background="new 58.75 5 25 25" xml:space="preserve">
<g>
	<path fill="#FFFFFF" d="M60.945,10.49c-0.034,0.15-0.092,0.291-0.092,0.45v13.118c0,0.333,0.092,0.633,0.229,0.913l5.18-10.688
		L60.945,10.49z"/>
	<path fill="#FFFFFF" d="M81.541,24.885c0.111-0.253,0.172-0.53,0.172-0.826V10.94c0-0.159-0.059-0.302-0.092-0.45l-5.313,3.791
		L81.541,24.885z"/>
	<path fill="#FFFFFF" d="M79.612,8.841H62.953c-0.368,0-0.699,0.122-1.002,0.291l9.333,6.657l9.334-6.657
		C80.312,8.962,79.982,8.841,79.612,8.841z"/>
	<path fill="#FFFFFF" d="M71.282,17.866l-3.624-2.585l-5.223,10.773c0.168,0.043,0.336,0.107,0.517,0.107h16.66
		c0.215,0,0.415-0.062,0.611-0.124l-5.312-10.76L71.282,17.866z"/>
</g>
</svg>
