<?xml version="1.0" encoding="utf-8"?>
<!-- Generator: Adobe Illustrator 16.0.4, SVG Export Plug-In . SVG Version: 6.00 Build 0)  -->
<!DOCTYPE svg PUBLIC "-//W3C//DTD SVG 1.1//EN" "http://www.w3.org/Graphics/SVG/1.1/DTD/svg11.dtd">
<svg version="1.1" id="Layer_1" xmlns="http://www.w3.org/2000/svg" xmlns:xlink="http://www.w3.org/1999/xlink" x="0px" y="0px"
	 width="25px" height="25px" viewBox="46.833 -4.5 25 25" enable-background="new 46.833 -4.5 25 25" xml:space="preserve">
<path fill="#FFFFFF" d="M61.822-2.04c-4.146,0-7.507,3.362-7.507,7.508c0,1.636,0.534,3.138,1.424,4.373l-1.021,1.022l-0.396-0.403
	c-0.068-0.065-0.17-0.079-0.221-0.022l-4.833,4.829c-0.057,0.055-0.045,0.155,0.026,0.221l2.49,2.492
	c0.067,0.067,0.169,0.079,0.222,0.026l4.829-4.833c0.055-0.051,0.044-0.151-0.024-0.223l-0.518-0.514l1.008-1.008
	c1.26,0.96,2.815,1.55,4.521,1.55c4.147,0,7.512-3.362,7.512-7.508C69.334,1.324,65.972-2.04,61.822-2.04z M61.822,9.413
	c-2.177,0-3.939-1.768-3.939-3.945c0-2.175,1.763-3.942,3.939-3.942c2.182,0,3.944,1.767,3.944,3.942
	C65.767,7.647,64.004,9.413,61.822,9.413z"/>
</svg>
