<?xml version="1.0" encoding="utf-8"?>
<!-- Generator: Adobe Illustrator 16.0.4, SVG Export Plug-In . SVG Version: 6.00 Build 0)  -->
<!DOCTYPE svg PUBLIC "-//W3C//DTD SVG 1.1//EN" "http://www.w3.org/Graphics/SVG/1.1/DTD/svg11.dtd">
<svg version="1.1" id="Layer_1" xmlns="http://www.w3.org/2000/svg" xmlns:xlink="http://www.w3.org/1999/xlink" x="0px" y="0px"
	 width="25px" height="25px" viewBox="0 0 25 25" enable-background="new 0 0 25 25" xml:space="preserve">
<g>
	<g>
		<path fill="#FFFFFF" d="M24.031,19.971c0,1.044-0.643,1.887-1.436,1.887H8.727c-0.792,0-1.435-0.844-1.435-1.887l0,0
			c0-1.043,0.642-1.891,1.435-1.891h13.869C23.389,18.08,24.031,18.928,24.031,19.971L24.031,19.971z"/>
		<circle fill="#FFFFFF" cx="3.21" cy="19.971" r="2.243"/>
	</g>
	<g>
		<path fill="#FFFFFF" d="M24.031,12.501c0,1.043-0.643,1.887-1.436,1.887H8.727c-0.792,0-1.435-0.845-1.435-1.887l0,0
			c0-1.044,0.642-1.888,1.435-1.888h13.869C23.389,10.613,24.031,11.457,24.031,12.501L24.031,12.501z"/>
		<circle fill="#FFFFFF" cx="3.21" cy="12.5" r="2.243"/>
	</g>
	<g>
		<path fill="#FFFFFF" d="M24.031,5.029c0,1.044-0.643,1.888-1.436,1.888H8.727c-0.792,0-1.435-0.846-1.435-1.888l0,0
			c0-1.044,0.642-1.888,1.435-1.888h13.869C23.389,3.143,24.031,3.985,24.031,5.029L24.031,5.029z"/>
		<circle fill="#FFFFFF" cx="3.21" cy="5.029" r="2.243"/>
	</g>
</g>
</svg>
