<?xml version="1.0" encoding="utf-8"?>
<!-- Generator: Adobe Illustrator 16.0.4, SVG Export Plug-In . SVG Version: 6.00 Build 0)  -->
<!DOCTYPE svg PUBLIC "-//W3C//DTD SVG 1.0//EN" "http://www.w3.org/TR/2001/REC-SVG-20010904/DTD/svg10.dtd">
<svg version="1.0" id="Layer_1" xmlns="http://www.w3.org/2000/svg" xmlns:xlink="http://www.w3.org/1999/xlink" x="0px" y="0px"
	 width="16.064px" height="16px" viewBox="0 0 16.064 16" enable-background="new 0 0 16.064 16" xml:space="preserve">
<g>
	<g>
		<path fill="#FFFFFF" d="M-14.436,13.203c0,0.726-0.447,1.315-1,1.315h-9.66c-0.552,0-0.999-0.589-0.999-1.315l0,0
			c0-0.727,0.447-1.316,0.999-1.316h9.66C-14.883,11.887-14.436,12.477-14.436,13.203L-14.436,13.203z"/>
		<circle fill="#FFFFFF" cx="-28.938" cy="13.203" r="1.562"/>
	</g>
	<g>
		<path fill="#FFFFFF" d="M-14.436,8c0,0.726-0.447,1.315-1,1.315h-9.66c-0.552,0-0.999-0.589-0.999-1.315l0,0
			c0-0.727,0.447-1.315,0.999-1.315h9.66C-14.883,6.685-14.436,7.273-14.436,8L-14.436,8z"/>
		<circle fill="#FFFFFF" cx="-28.938" cy="8" r="1.562"/>
	</g>
	<g>
		<path fill="#FFFFFF" d="M-14.436,2.797c0,0.727-0.447,1.315-1,1.315h-9.66c-0.552,0-0.999-0.589-0.999-1.315l0,0
			c0-0.727,0.447-1.315,0.999-1.315h9.66C-14.883,1.482-14.436,2.07-14.436,2.797L-14.436,2.797z"/>
		<circle fill="#FFFFFF" cx="-28.938" cy="2.797" r="1.562"/>
	</g>
</g>
<path fill="#FFFFFF" d="M8.032,1.194c-2.5,0-4.526,2.026-4.526,4.526s4.526,8.085,4.526,8.085s4.526-5.585,4.526-8.085
	S10.533,1.194,8.032,1.194z M8.032,8.182c-1.392,0-2.52-1.128-2.52-2.52s1.128-2.52,2.52-2.52s2.52,1.128,2.52,2.52
	S9.424,8.182,8.032,8.182z"/>
</svg>
